#Comment line ignore any data following # character 
#Hierarchical Translation and Rotation (.htr) file 
[Header]	
#Header keywords are followed by a single value 
FileType HTR		#Single word string
DataType HTRS		#Translation followed by rotation and scale data
FileVersion 1		#integer
NumSegments 64		#integer
NumFrames 3		#integer
DataFrameRate 30		#integer, data frame rate in this file
EulerRotationOrder ZYX
CalibrationUnits mm
RotationUnits Degrees
GlobalAxisofGravity Y
BoneLengthAxis Y
ScaleFactor 1.00
[SegmentNames&Hierarchy]
#CHILD	PARENT
Pinger_Root GLOBAL
Pelvis Pinger_Root
L_Hip Pelvis
R_Hip Pelvis
Rear_Leg01 Pelvis
Spine1 Pelvis
L_Leg01 L_Hip
L_Leg02 L_Leg01
L_Leg03 L_Leg02
L_Foot L_Leg03
L_Toe1_01 L_Foot
L_Toe2_01 L_Foot
L_Toe3_01 L_Foot
planeAlignerLeft L_Foot
L_Toe1_02 L_Toe1_01
L_Toe1_03 L_Toe1_02
L_Toe2_02 L_Toe2_01
L_Toe2_03 L_Toe2_02
L_Toe3_02 L_Toe3_01
L_Toe3_03 L_Toe3_02
planeLockWeightLeft planeAlignerLeft
R_Leg01 R_Hip
R_Leg02 R_Leg01
R_Leg03 R_Leg02
R_Foot R_Leg03
planeAlignerRight R_Foot
R_Toe1_01 R_Foot
R_Toe2_01 R_Foot
R_Toe3_01 R_Foot
planeLockWeightRight planeAlignerRight
R_Toe1_02 R_Toe1_01
R_Toe1_03 R_Toe1_02
R_Toe2_02 R_Toe2_01
R_Toe2_03 R_Toe2_02
R_Toe3_02 R_Toe3_01
R_Toe3_03 R_Toe3_02
Rear_Leg02 Rear_Leg01
Rear_Leg03 Rear_Leg02
Rear_Leg04 Rear_Leg03
Rear_Foot Rear_Leg04
planeAlignerCenter Rear_Foot
Rear_Toe1_01 Rear_Foot
Rear_Toe2_01 Rear_Foot
Rear_Toe3_01 Rear_Foot
planeLockWeightCenter planeAlignerCenter
Rear_Toe1_02 Rear_Toe1_01
Rear_Toe1_03 Rear_Toe1_02
Rear_Toe2_02 Rear_Toe2_01
Rear_Toe2_03 Rear_Toe2_02
Rear_Toe3_02 Rear_Toe3_01
Rear_Toe3_03 Rear_Toe3_02
Back_Bone Spine1
Head Spine1
Motor_Bone Back_Bone
Ping_Mechanism Back_Bone
BN_LookIK Head
bottomMouth Head
L_Mouth01 Head
L_mouthFront Head
mouthGun Head
R_Mouth01 Head
R_mouthFront Head
TopMouth Head
weapon_bone Head
[BasePosition]
#SegmentName Tx, Ty, Tz, Rx, Ry, Rz, BoneLength
Pinger_Root 0.000000 0.000000 0.000000 -90.000000 0.000000 0.000000 10.000000 
Pelvis 0.000000 0.000000 0.000000 0.000000 0.000000 0.000000 10.000000 
L_Hip 0.000000 0.000000 0.000000 0.000000 0.000000 0.000000 10.000000 
R_Hip 0.000000 0.000000 0.000000 0.000000 0.000000 0.000000 10.000000 
Rear_Leg01 0.000000 0.000000 0.000000 0.000000 0.000000 0.000000 10.000000 
Spine1 0.000000 0.000000 0.000000 0.000000 0.000000 0.000000 10.000000 
L_Leg01 0.000000 0.000000 0.000000 0.000000 0.000000 0.000000 10.000000 
L_Leg02 0.000000 0.000000 0.000000 0.000000 0.000000 0.000000 10.000000 
L_Leg03 0.000000 0.000000 0.000000 0.000000 0.000000 0.000000 10.000000 
L_Foot 0.000000 0.000000 0.000000 0.000000 0.000000 0.000000 10.000000 
L_Toe1_01 0.000000 0.000000 0.000000 0.000000 0.000000 0.000000 10.000000 
L_Toe2_01 0.000000 0.000000 0.000000 0.000000 0.000000 0.000000 10.000000 
L_Toe3_01 0.000000 0.000000 0.000000 0.000000 0.000000 0.000000 10.000000 
planeAlignerLeft 0.000000 0.000000 0.000000 0.000000 0.000000 0.000000 10.000000 
L_Toe1_02 0.000000 0.000000 0.000000 0.000000 0.000000 0.000000 10.000000 
L_Toe1_03 0.000000 0.000000 0.000000 0.000000 0.000000 0.000000 10.000000 
L_Toe2_02 0.000000 0.000000 0.000000 0.000000 0.000000 0.000000 10.000000 
L_Toe2_03 0.000000 0.000000 0.000000 0.000000 0.000000 0.000000 10.000000 
L_Toe3_02 0.000000 0.000000 0.000000 0.000000 0.000000 0.000000 10.000000 
L_Toe3_03 0.000000 0.000000 0.000000 0.000000 0.000000 0.000000 10.000000 
planeLockWeightLeft 0.000000 0.000000 0.000000 0.000000 0.000000 0.000000 10.000000 
R_Leg01 0.000000 0.000000 0.000000 0.000000 0.000000 0.000000 10.000000 
R_Leg02 0.000000 0.000000 0.000000 0.000000 0.000000 0.000000 10.000000 
R_Leg03 0.000000 0.000000 0.000000 0.000000 0.000000 0.000000 10.000000 
R_Foot 0.000000 0.000000 0.000000 0.000000 0.000000 0.000000 10.000000 
planeAlignerRight 0.000000 0.000000 0.000000 0.000000 0.000000 0.000000 10.000000 
R_Toe1_01 0.000000 0.000000 0.000000 0.000000 0.000000 0.000000 10.000000 
R_Toe2_01 0.000000 0.000000 0.000000 0.000000 0.000000 0.000000 10.000000 
R_Toe3_01 0.000000 0.000000 0.000000 0.000000 0.000000 0.000000 10.000000 
planeLockWeightRight 0.000000 0.000000 0.000000 0.000000 0.000000 0.000000 10.000000 
R_Toe1_02 0.000000 0.000000 0.000000 0.000000 0.000000 0.000000 10.000000 
R_Toe1_03 0.000000 0.000000 0.000000 0.000000 0.000000 0.000000 10.000000 
R_Toe2_02 0.000000 0.000000 0.000000 0.000000 0.000000 0.000000 10.000000 
R_Toe2_03 0.000000 0.000000 0.000000 0.000000 0.000000 0.000000 10.000000 
R_Toe3_02 0.000000 0.000000 0.000000 0.000000 0.000000 0.000000 10.000000 
R_Toe3_03 0.000000 0.000000 0.000000 0.000000 0.000000 0.000000 10.000000 
Rear_Leg02 0.000000 0.000000 0.000000 0.000000 0.000000 0.000000 10.000000 
Rear_Leg03 0.000000 0.000000 0.000000 0.000000 0.000000 0.000000 10.000000 
Rear_Leg04 0.000000 0.000000 0.000000 0.000000 0.000000 0.000000 10.000000 
Rear_Foot 0.000000 0.000000 0.000000 0.000000 0.000000 0.000000 10.000000 
planeAlignerCenter 0.000000 0.000000 0.000000 0.000000 0.000000 0.000000 10.000000 
Rear_Toe1_01 0.000000 0.000000 0.000000 0.000000 0.000000 0.000000 10.000000 
Rear_Toe2_01 0.000000 0.000000 0.000000 0.000000 0.000000 0.000000 10.000000 
Rear_Toe3_01 0.000000 0.000000 0.000000 0.000000 0.000000 0.000000 10.000000 
planeLockWeightCenter 0.000000 0.000000 0.000000 0.000000 0.000000 0.000000 10.000000 
Rear_Toe1_02 0.000000 0.000000 0.000000 0.000000 0.000000 0.000000 10.000000 
Rear_Toe1_03 0.000000 0.000000 0.000000 0.000000 0.000000 0.000000 10.000000 
Rear_Toe2_02 0.000000 0.000000 0.000000 0.000000 0.000000 0.000000 10.000000 
Rear_Toe2_03 0.000000 0.000000 0.000000 0.000000 0.000000 0.000000 10.000000 
Rear_Toe3_02 0.000000 0.000000 0.000000 0.000000 0.000000 0.000000 10.000000 
Rear_Toe3_03 0.000000 0.000000 0.000000 0.000000 0.000000 0.000000 10.000000 
Back_Bone 0.000000 0.000000 0.000000 0.000000 0.000000 0.000000 10.000000 
Head 0.000000 0.000000 0.000000 0.000000 0.000000 0.000000 10.000000 
Motor_Bone 0.000000 0.000000 0.000000 0.000000 0.000000 0.000000 10.000000 
Ping_Mechanism 0.000000 0.000000 0.000000 0.000000 0.000000 0.000000 10.000000 
BN_LookIK 0.000000 0.000000 0.000000 0.000000 0.000000 0.000000 10.000000 
bottomMouth 0.000000 0.000000 0.000000 0.000000 0.000000 0.000000 10.000000 
L_Mouth01 0.000000 0.000000 0.000000 0.000000 0.000000 0.000000 10.000000 
L_mouthFront 0.000000 0.000000 0.000000 0.000000 0.000000 0.000000 10.000000 
mouthGun 0.000000 0.000000 0.000000 0.000000 0.000000 0.000000 10.000000 
R_Mouth01 0.000000 0.000000 0.000000 0.000000 0.000000 0.000000 10.000000 
R_mouthFront 0.000000 0.000000 0.000000 0.000000 0.000000 0.000000 10.000000 
TopMouth 0.000000 0.000000 0.000000 0.000000 0.000000 0.000000 10.000000 
weapon_bone 0.000000 0.000000 0.000000 0.000000 0.000000 0.000000 10.000000 
#Beginning of Data. Separated by tabs
#Fr	Tx	Ty	Tz	Rx	Ry	Rz	SF
[Pinger_Root]
32 0.000000 0.000000 0.000000 -0.000075 -0.000000 -0.000020 0.000000
33 0.000000 0.000000 0.000000 -0.000075 -0.000000 -0.000020 0.000000
34 0.000000 0.000000 0.000000 -0.000075 -0.000000 -0.000020 0.000000
[Pelvis]
32 -783.831909 487.184418 4316.377930 -146.641479 -80.152504 138.619034 4413.939453
33 -784.146423 487.133606 4292.648438 -144.508514 -79.853706 136.458282 4390.787598
34 -784.245728 489.510590 4268.134277 -142.500641 -79.541512 134.422623 4367.107910
[L_Hip]
32 5.766392 125.831482 872.656799 160.158691 -45.484894 122.312202 881.701050
33 5.766392 125.831482 872.656799 160.158691 -45.484894 122.312202 881.701050
34 5.766392 125.831482 872.656799 160.158691 -45.484905 122.312202 881.701050
[R_Hip]
32 5.765438 125.836372 -872.654907 38.087826 49.812679 125.703735 881.699829
33 5.765438 125.836372 -872.654907 38.087830 49.812672 125.703735 881.699829
34 5.765438 125.836372 -872.654907 38.087841 49.812687 125.703735 881.699829
[Rear_Leg01]
32 -192.298416 -925.602966 -0.001907 168.768265 6.589835 -167.010742 945.367432
33 -192.298416 -925.602966 -0.001907 168.763519 6.574731 -167.474121 945.367432
34 -192.298416 -925.602966 -0.001907 168.789871 6.604990 -167.778732 945.367432
[Spine1]
32 290.604584 5.007505 0.000477 25.301851 -10.419533 -1.345791 290.647736
33 290.604584 5.007505 0.000477 24.991796 -10.631937 -1.262290 290.647736
34 290.604584 5.007505 0.000477 24.579771 -11.042456 -1.180629 290.647736
[L_Leg01]
32 761.932007 -0.002384 -0.069261 14.283773 -22.296413 8.782150 761.932068
33 761.932007 -0.002384 -0.069261 13.539495 -22.460955 10.537821 761.932068
34 761.932007 -0.002384 -0.069261 12.789271 -22.604307 12.297617 761.932068
[L_Leg02]
32 1441.140503 -0.000954 -0.000715 4.009937 -0.187386 -141.771591 1441.140503
33 1441.140503 -0.000954 -0.000715 4.175169 -0.187366 -143.243088 1441.140503
34 1441.140503 -0.000954 -0.000715 4.340343 -0.183103 -144.714569 1441.140503
[L_Leg03]
32 1686.963989 -0.000715 -0.000954 -0.034441 0.013331 119.620628 1686.963989
33 1686.963989 -0.000715 -0.000954 -0.034840 0.014080 119.740623 1686.963989
34 1686.963989 -0.000715 -0.000954 -0.035239 0.014830 119.860641 1686.963989
[L_Foot]
32 3041.570068 -30.715107 11.297464 12.664455 12.236686 55.028492 3041.746094
33 3041.570068 -30.715107 11.297464 12.679634 12.143254 55.172562 3041.746094
34 3041.570068 -30.715107 11.297464 12.694571 12.049785 55.316559 3041.746094
[L_Toe1_01]
32 -188.216690 -224.732346 -21.137953 94.247940 -14.012066 -176.991913 293.899567
33 -188.216690 -224.732346 -21.137953 94.247368 -14.008442 -176.993835 293.899567
34 -188.216690 -224.732346 -21.137953 94.246803 -14.004821 -176.995758 293.899567
[L_Toe2_01]
32 200.746536 -219.926590 148.838394 -86.962540 -38.143902 -51.623238 332.896027
33 200.746536 -219.926590 148.838394 -86.962540 -38.143902 -51.623238 332.896027
34 200.746536 -219.926590 148.838394 -86.962540 -38.143902 -51.623238 332.896027
[L_Toe3_01]
32 188.832520 -219.859131 -191.078659 -96.244041 5.651123 -57.931507 347.140900
33 188.832520 -219.859131 -191.078659 -96.244041 5.651123 -57.931507 347.140900
34 188.832520 -219.859131 -191.078659 -96.244041 5.651123 -57.931507 347.140900
[planeAlignerLeft]
32 0.812531 -811.448792 -0.314951 0.000000 -90.000000 -90.001900 811.449280
33 0.812531 -811.448792 -0.314951 0.000000 -90.000000 -90.001900 811.449280
34 0.812531 -811.448792 -0.314951 0.000000 -90.000000 -90.001900 811.449280
[L_Toe1_02]
32 413.761139 0.000477 0.000000 0.001661 0.066733 0.001661 413.761139
33 413.761139 0.000477 0.000000 0.001661 0.066473 0.001661 413.761139
34 413.761139 0.000477 0.000000 0.001661 0.066213 0.001661 413.761139
[L_Toe1_03]
32 464.317322 0.000358 -0.000089 0.001673 -0.448396 -0.003292 464.317322
33 464.317322 0.000358 -0.000089 0.001673 -0.448396 -0.003292 464.317322
34 464.317322 0.000358 -0.000089 0.001673 -0.448396 -0.003292 464.317322
[L_Toe2_02]
32 342.235809 -0.000477 0.000238 0.001186 -73.504219 0.001186 342.235809
33 342.235809 -0.000477 0.000238 0.001186 -73.496185 0.001186 342.235809
34 342.235809 -0.000477 0.000238 0.001186 -73.488167 0.001186 342.235809
[L_Toe2_03]
32 420.210846 -0.000715 0.000000 -0.044560 88.461372 -0.041063 420.210846
33 420.210846 -0.000715 0.000000 -0.044438 88.457054 -0.040941 420.210846
34 420.210846 -0.000715 0.000000 -0.044317 88.452492 -0.040820 420.210846
[L_Toe3_02]
32 329.270111 0.000954 0.000000 0.004676 -84.372871 0.004676 329.270111
33 329.270111 0.000954 0.000000 0.004676 -84.367508 0.004676 329.270111
34 329.270111 0.000954 0.000000 0.004676 -84.362083 0.004676 329.270111
[L_Toe3_03]
32 439.137451 -0.001907 0.000954 179.992569 53.575073 179.999924 439.137451
33 439.137451 -0.001907 0.000954 179.992569 53.575073 179.999924 439.137451
34 439.137451 -0.001907 0.000954 179.992569 53.575073 179.999924 439.137451
[planeLockWeightLeft]
32 -0.000954 0.000238 -0.000305 -0.011826 -0.004376 0.005620 0.001029
33 -0.000954 0.000238 -0.000305 -0.011826 -0.004376 0.005620 0.001029
34 -0.000954 0.000238 -0.000305 -0.011826 -0.004376 0.005620 0.001029
[R_Leg01]
32 761.455627 -0.001907 -0.000358 121.266418 3.092961 41.836739 761.455688
33 761.455627 -0.001907 -0.000358 121.388680 1.669562 40.754547 761.455688
34 761.455627 -0.001907 -0.000358 121.537811 0.248375 39.669498 761.455688
[R_Leg02]
32 1441.140625 0.000000 -0.000238 0.357808 0.106421 -71.272331 1441.140625
33 1441.140625 0.000000 -0.000238 0.271744 0.110616 -73.927902 1441.140625
34 1441.140625 0.000000 -0.000238 0.185578 0.110820 -76.583488 1441.140625
[R_Leg03]
32 1686.963989 0.000954 0.001431 0.025285 -0.009613 116.779190 1686.963989
33 1686.963989 0.000954 0.001431 0.028326 -0.011789 117.705391 1686.963989
34 1686.963989 0.000954 0.001431 0.031331 -0.014014 118.631660 1686.963989
[R_Foot]
32 3041.560059 -30.531288 -11.204481 9.482245 -23.629211 32.008415 3041.734131
33 3041.560059 -30.531288 -11.204481 9.636834 -23.622000 32.343391 3041.734131
34 3041.560059 -30.531288 -11.204481 9.791458 -23.615602 32.678352 3041.734131
[planeAlignerRight]
32 -0.635147 -812.270569 -0.364304 0.000000 -89.960434 -90.005180 812.270874
33 -0.635147 -812.270569 -0.364304 0.000000 -89.960434 -90.005180 812.270874
34 -0.635147 -812.270569 -0.364304 0.000000 -89.960434 -90.005180 812.270874
[R_Toe1_01]
32 -188.383347 -224.864899 21.052242 77.059845 -3.473235 -171.500626 294.101532
33 -188.383347 -224.864899 21.052242 77.061348 -3.483316 -171.518341 294.101532
34 -188.383347 -224.864899 21.052242 77.062851 -3.493397 -171.536057 294.101532
[R_Toe2_01]
32 200.637817 -220.002121 -148.787384 -90.729179 29.313789 -59.374111 332.857574
33 200.637817 -220.002121 -148.787384 -90.718338 29.311440 -59.354939 332.857574
34 200.637817 -220.002121 -148.787384 -90.707504 29.309072 -59.335754 332.857574
[R_Toe3_01]
32 188.606735 -220.092957 191.126343 -71.959068 -10.327477 -75.474129 347.192566
33 188.606735 -220.092957 191.126343 -71.954559 -10.337268 -75.461472 347.192566
34 188.606735 -220.092957 191.126343 -71.950043 -10.347055 -75.448822 347.192566
[planeLockWeightRight]
32 -0.000477 0.000000 0.000000 -0.011823 -0.004379 -0.000027 0.000477
33 -0.000477 0.000000 0.000000 -0.011823 -0.004379 -0.000027 0.000477
34 -0.000477 0.000000 0.000000 -0.011823 -0.004379 -0.000027 0.000477
[R_Toe1_02]
32 413.762085 0.000477 -0.000119 0.000006 -25.434675 -0.000005 413.762085
33 413.762085 0.000477 -0.000119 0.000006 -25.434675 -0.000005 413.762085
34 413.762085 0.000477 -0.000119 0.000006 -25.434675 -0.000005 413.762085
[R_Toe1_03]
32 464.317810 0.000000 0.001088 0.007206 71.253281 0.007206 464.317810
33 464.317810 0.000000 0.001088 0.007215 71.276306 0.007215 464.317810
34 464.317810 0.000000 0.001088 0.007228 71.309799 0.007228 464.317810
[R_Toe2_02]
32 342.234741 -0.000954 0.000238 0.001197 -67.075569 0.001197 342.234741
33 342.234741 -0.000954 0.000238 0.001197 -67.094040 0.001197 342.234741
34 342.234741 -0.000954 0.000238 0.001197 -67.112457 0.001197 342.234741
[R_Toe2_03]
32 420.210846 0.000715 -0.000268 0.008072 73.280632 0.008072 420.210846
33 420.210846 0.000715 -0.000268 0.008084 73.304863 0.008084 420.210846
34 420.210846 0.000715 -0.000268 0.008096 73.329079 0.008096 420.210846
[R_Toe3_02]
32 329.270355 -0.000477 -0.000954 -0.002484 -69.836456 0.003758 329.270355
33 329.270355 -0.000477 -0.000954 -0.001750 -69.848503 0.003246 329.270355
34 329.270355 -0.000477 -0.000954 -0.001016 -69.860596 0.002734 329.270355
[R_Toe3_03]
32 439.137939 0.000238 0.001431 0.007971 73.065750 0.007971 439.137939
33 439.137939 0.000238 0.001431 0.007975 73.074387 0.007975 439.137939
34 439.137939 0.000238 0.001431 0.007979 73.083008 0.007979 439.137939
[Rear_Leg02]
32 1162.777710 -0.029802 0.005960 1.274181 -2.694100 -137.254791 1162.777710
33 1162.777710 -0.029802 0.005960 1.302519 -2.679191 -137.878281 1162.777710
34 1162.777710 -0.029802 0.005960 1.330692 -2.663973 -138.501770 1162.777710
[Rear_Leg03]
32 607.192505 -0.013351 -0.073195 0.010451 -0.005189 69.163559 607.192505
33 607.192505 -0.013351 -0.073195 0.010444 -0.005204 69.322891 607.192505
34 607.192505 -0.013351 -0.073195 0.010437 -0.005218 69.482224 607.192505
[Rear_Leg04]
32 995.874512 -0.020504 -0.011921 -0.040387 -0.018382 68.417114 995.874573
33 995.874512 -0.020504 -0.011921 -0.040459 -0.018223 68.866852 995.874573
34 995.874512 -0.020504 -0.011921 -0.040530 -0.018064 69.316582 995.874573
[Rear_Foot]
32 3096.176270 -0.067472 -0.041425 -15.637336 80.325554 172.970490 3096.176270
33 3096.176270 -0.067472 -0.041425 -15.559069 80.299820 173.178009 3096.176270
34 3096.176270 -0.067472 -0.041425 -15.481529 80.273972 173.384781 3096.176270
[planeAlignerCenter]
32 0.350077 0.966311 -838.790894 0.000009 0.000003 -179.999985 838.791565
33 0.350077 0.966311 -838.790894 0.000009 0.000003 -179.999985 838.791565
34 0.350077 0.966311 -838.790894 0.000009 0.000003 -179.999985 838.791565
[Rear_Toe1_01]
32 0.653352 83.966492 -371.173737 0.288088 41.914127 90.413170 380.553192
33 0.653352 83.966492 -371.173737 0.288093 41.914120 90.413170 380.553192
34 0.653352 83.966492 -371.173737 0.288091 41.914127 90.413170 380.553192
[Rear_Toe2_01]
32 178.200760 -294.826019 -362.060547 -7.196267 34.406261 -66.271294 499.765686
33 178.200760 -294.826019 -362.060547 -7.196269 34.406261 -66.271301 499.765686
34 178.200760 -294.826019 -362.060547 -7.196267 34.406261 -66.271294 499.765686
[Rear_Toe3_01]
32 -153.359680 -308.780914 -362.060852 3.289420 33.518005 -112.540970 499.952881
33 -153.359680 -308.780914 -362.060852 3.289418 33.518005 -112.540970 499.952881
34 -153.359680 -308.780914 -362.060852 3.289418 33.518005 -112.540970 499.952881
[planeLockWeightCenter]
32 -0.000062 0.000238 0.000000 -0.011814 -0.004373 -0.000015 0.000246
33 -0.000062 0.000238 0.000000 -0.011814 -0.004373 -0.000015 0.000246
34 -0.000062 0.000238 0.000000 -0.011814 -0.004373 -0.000015 0.000246
[Rear_Toe1_02]
32 379.707825 0.194073 0.000477 -0.000242 -31.676744 0.006934 379.707855
33 379.707825 0.194073 0.000477 -0.000242 -31.676741 0.006934 379.707855
34 379.707825 0.194073 0.000477 -0.000242 -31.676744 0.006934 379.707855
[Rear_Toe1_03]
32 500.129700 0.165701 0.000119 -0.000103 51.902466 0.007295 500.129761
33 500.129700 0.165701 0.000119 -0.000103 51.902466 0.007295 500.129761
34 500.129700 0.165701 0.000119 -0.000103 51.902481 0.007295 500.129761
[Rear_Toe2_02]
32 340.494507 0.000238 -0.000954 0.001192 -69.854523 0.001192 340.494507
33 340.494507 0.000238 -0.000954 0.001192 -69.854523 0.001192 340.494507
34 340.494507 0.000238 -0.000954 0.001192 -69.854523 0.001192 340.494507
[Rear_Toe2_03]
32 433.103577 0.000000 0.000238 0.006696 69.810303 0.006696 433.103546
33 433.103577 0.000000 0.000238 0.006696 69.810326 0.006696 433.103546
34 433.103577 0.000000 0.000238 0.006696 69.810326 0.006696 433.103546
[Rear_Toe3_02]
32 340.494141 -0.000358 -0.000477 0.008288 -67.274704 -0.009460 340.494171
33 340.494141 -0.000358 -0.000477 0.008288 -67.274704 -0.009460 340.494171
34 340.494141 -0.000358 -0.000477 0.008288 -67.274704 -0.009460 340.494171
[Rear_Toe3_03]
32 433.103577 0.001431 -0.000238 -0.000972 65.958961 -0.004547 433.103546
33 433.103577 0.001431 -0.000238 -0.000972 65.958977 -0.004547 433.103546
34 433.103577 0.001431 -0.000238 -0.000972 65.958984 -0.004547 433.103546
[Back_Bone]
32 1312.175781 -701.934692 0.000954 0.000023 -0.000007 -85.606667 1488.125488
33 1312.175781 -701.934692 0.000954 0.000023 -0.000007 -85.606667 1488.125488
34 1312.175781 -701.934692 0.000954 0.000023 -0.000007 -85.606667 1488.125488
[Head]
32 1406.159424 809.709290 0.001431 -0.274687 -0.802224 7.947999 1622.625488
33 1406.159424 809.709290 0.001431 -0.392614 -0.749352 7.968464 1622.625488
34 1406.159424 809.709290 0.001431 -0.247256 -0.723051 8.007097 1622.625488
[Motor_Bone]
32 1158.364380 -417.834747 0.000477 -0.000105 0.000046 -105.985291 1231.419434
33 1158.364380 -417.834747 0.000477 -0.000105 0.000046 -105.985291 1231.419434
34 1158.364380 -417.834747 0.000477 -0.000105 0.000046 -105.985291 1231.419434
[Ping_Mechanism]
32 1215.237793 -433.297150 0.000954 0.000103 -0.000053 82.120995 1290.174072
33 1215.237793 -433.297150 0.000954 0.000103 -0.000053 82.120995 1290.174072
34 1215.237793 -433.297150 0.000954 0.000103 -0.000053 82.120995 1290.174072
[BN_LookIK]
32 193.241119 1380.371704 -0.002861 0.000000 89.965736 -31.038179 1393.832153
33 193.241119 1380.371704 -0.002861 0.000000 89.965736 -31.038179 1393.832153
34 193.241119 1380.371704 -0.002861 0.000000 89.965736 -31.038179 1393.832153
[bottomMouth]
32 -435.092926 615.759399 -0.000954 -0.000022 0.000016 73.527184 753.966492
33 -435.092926 615.759399 -0.000954 -0.000022 0.000016 73.527184 753.966492
34 -435.092926 615.759399 -0.000954 -0.000022 0.000016 73.527184 753.966492
[L_Mouth01]
32 554.440979 7.658243 838.222046 150.204178 23.759130 109.605339 1005.027161
33 554.440979 7.658243 838.222046 150.204178 23.759130 109.605339 1005.027161
34 554.440979 7.658243 838.222046 150.204178 23.759130 109.605339 1005.027161
[L_mouthFront]
32 551.629089 934.514771 339.150421 0.000081 2.804060 79.119301 1136.941284
33 551.629089 934.514771 339.150421 0.000081 2.804060 79.119301 1136.941284
34 551.629089 934.514771 339.150421 0.000081 2.804060 79.119301 1136.941284
[mouthGun]
32 55.332661 1627.420898 0.000000 0.000023 0.000009 -11.038128 1628.361328
33 55.332661 1627.420898 0.000000 0.000023 0.000009 -11.038128 1628.361328
34 55.332661 1627.420898 0.000000 0.000023 0.000009 -11.038128 1628.361328
[R_Mouth01]
32 554.442383 7.659197 -838.223938 29.795891 -23.759109 109.605331 1005.029541
33 554.442383 7.659197 -838.223938 29.795891 -23.759109 109.605331 1005.029541
34 554.442383 7.659197 -838.223938 29.795891 -23.759109 109.605331 1005.029541
[R_mouthFront]
32 551.629089 934.514282 -339.151367 0.000029 -2.803930 79.119133 1136.941162
33 551.629089 934.514282 -339.151367 0.000029 -2.803930 79.119133 1136.941162
34 551.629089 934.514282 -339.151367 0.000029 -2.803930 79.119133 1136.941162
[TopMouth]
32 461.269867 -56.106091 -0.008583 -0.000059 -0.000268 92.025169 464.669525
33 461.269867 -56.106091 -0.008583 -0.000059 -0.000268 92.025169 464.669525
34 461.269867 -56.106091 -0.008583 -0.000059 -0.000268 92.025169 464.669525
[weapon_bone]
32 -987.239868 1448.372803 0.001431 0.000000 89.965736 -31.038221 1752.833740
33 -987.239868 1448.372803 0.001431 0.000000 89.965736 -31.038221 1752.833740
34 -987.239868 1448.372803 0.001431 0.000000 89.965736 -31.038221 1752.833740
